<?xml version="1.0" encoding="utf-8"?>
<!-- Generator: Adobe Illustrator 25.4.1, SVG Export Plug-In . SVG Version: 6.00 Build 0)  -->
<svg version="1.1" id="图层_1" xmlns="http://www.w3.org/2000/svg" xmlns:xlink="http://www.w3.org/1999/xlink" x="0px" y="0px"
	 viewBox="0 0 820 425.2" style="enable-background:new 0 0 820 425.2;" xml:space="preserve">
<style type="text/css">
	.st0{enable-background:new    ;}
	.st1{fill:#0066FF;}
</style>
<g>
	<g>
		<path d="M503,274.4h-20.6c-1.6,0-2.9-1.3-2.9-2.9V162.3c0-1.6,1.3-2.9,2.9-2.9s2.9,1.3,2.9,2.9v106.3h14.9V162.3
			c0-1.6,1.3-2.9,2.9-2.9c1.6,0,2.9,1.3,2.9,2.9v109.2C505.9,273.1,504.6,274.4,503,274.4"/>
		<path d="M459.8,181c0-0.1,0-0.2,0-0.3c-1.1-12.2-11.1-21.3-23.3-21.3c-1.6,0-2.9,1.3-2.9,2.9s1.3,2.9,2.9,2.9
			c9.2,0,16.7,6.8,17.5,15.9l0.1,87.5h-15V183v-0.2c0-11.6-8.3-21.2-19.6-23.1c-1.5-0.2-38-0.3-38.4-0.3c-1.6,0-2.9,1.3-2.9,2.9
			v109.2c0,1.6,1.3,2.9,2.9,2.9h20.6c1.6,0,2.9-1.3,2.9-2.9v-85.6h20.7c1.6,0,2.9-1.3,2.9-2.9c0-1.6-1.3-2.9-2.9-2.9h-23.6
			c-1.6,0-2.9,1.3-2.9,2.9v85.6h-14.9V165.2c8.7,0,32.4,0.1,34.6,0.2c8.6,1.4,14.8,8.7,14.8,17.3v0.2v88.5c0,1.6,1.3,2.9,2.9,2.9
			h20.7c0.8,0,1.5-0.3,2.1-0.9c0.5-0.5,0.9-1.3,0.9-2.1L459.8,181z"/>
		<path d="M550.1,38L500.2,9.1c-4.4-2.5-9.8-2.5-14.2,0L436,38c-4.4,2.5-7.1,7.2-7.1,12.3v57.6c0,5,2.7,9.8,7.1,12.3l12.3,7.1
			c-0.1,0.6-0.2,1.2-0.2,1.9c0,5.2,4.2,9.4,9.4,9.4c5.2,0,9.4-4.2,9.4-9.4s-4.2-9.4-9.4-9.4c-2.4,0-4.7,0.9-6.3,2.5l-12.2-7.1
			c-2.6-1.5-4.2-4.3-4.2-7.2V50.2c0-3,1.6-5.8,4.2-7.2l49.9-28.8c2.6-1.5,5.8-1.5,8.4,0l50,28.8c2.6,1.5,4.2,4.3,4.2,7.2v57.6
			c0,3-1.6,5.8-4.2,7.2l-50,28.8c-0.5,0.3-1.1,0.5-1.6,0.7v-18c0-0.3,0-0.6,0-0.9v-10.4c0.1-0.1,0.2-0.1,0.3-0.2l28.7-19.3
			c0.8-0.5,1.3-1.4,1.3-2.4V63.1c3.9-1.2,6.7-4.8,6.7-9c0-5.2-4.2-9.4-9.4-9.4s-9.4,4.2-9.4,9.4c0,4.1,2.6,7.6,6.3,8.9v28.8
			l-24.5,16.5V50.2c3.8-1.2,6.6-4.8,6.6-9c0-5.2-4.2-9.4-9.4-9.4s-9.4,4.2-9.4,9.4c0,4.1,2.7,7.7,6.4,8.9v38.2l-16.2-9.5V63.7
			c3.8-1.2,6.5-4.8,6.5-8.9c0-5.2-4.2-9.4-9.4-9.4c-5.2,0-9.4,4.2-9.4,9.4c0,4.2,2.7,7.7,6.5,8.9v16.8c0,1,0.6,2,1.4,2.5l20.5,12v26
			l-35.4-20.4V75.3c3.7-1.2,6.5-4.8,6.5-8.9c0-5.2-4.2-9.4-9.4-9.4c-5.2,0-9.4,4.2-9.4,9.4c0,4.2,2.7,7.7,6.5,9v26.8
			c0,1,0.6,2,1.5,2.5l39.7,23V148c0,0.1,0,0.2,0,0.3s0,0.2,0,0.3s0.1,0.2,0.1,0.3s0,0.1,0.1,0.2c0,0.1,0.1,0.2,0.2,0.3
			c0,0.1,0.1,0.1,0.1,0.2c0.1,0.1,0.2,0.2,0.2,0.3l0.1,0.1c0.1,0.1,0.2,0.2,0.3,0.3l0.1,0.1c0.1,0.1,0.3,0.2,0.4,0.2
			c0,0,0.1,0,0.1,0.1c0.1,0.1,0.3,0.1,0.4,0.2h0.1c0.2,0,0.3,0.1,0.5,0.1h0.1l0,0c0,0,0,0,0.1,0l0,0c0.1,0,0.2,0,0.3,0
			c2.5,0,4.9-0.7,7.1-1.9l50-28.8c4.4-2.5,7.1-7.2,7.1-12.3V50.2C557.1,45.2,554.4,40.5,550.1,38 M457.5,125.5c2,0,3.6,1.6,3.6,3.6
			c0,2-1.6,3.6-3.6,3.6s-3.6-1.6-3.6-3.6C453.9,127,455.5,125.5,457.5,125.5 M523.2,50.6c2,0,3.6,1.6,3.6,3.6s-1.6,3.6-3.6,3.6
			s-3.6-1.6-3.6-3.6S521.2,50.6,523.2,50.6 M470.7,51.2c2,0,3.6,1.6,3.6,3.6s-1.6,3.6-3.6,3.6s-3.6-1.6-3.6-3.6
			S468.8,51.2,470.7,51.2 M451.6,62.8c2,0,3.6,1.6,3.6,3.6s-1.6,3.6-3.6,3.6s-3.6-1.6-3.6-3.6S449.6,62.8,451.6,62.8 M492.8,37.6
			c2,0,3.6,1.6,3.6,3.6s-1.6,3.6-3.6,3.6s-3.6-1.6-3.6-3.6C489.2,39.2,490.8,37.6,492.8,37.6"/>
		<path d="M355.6,248h-58.9c-6.1,0-11-5-11-11v-39.9c0-6.1,5-11,11-11H332v17.4h-25.9v-9.2c0-1.6-1.3-2.9-2.9-2.9s-2.9,1.3-2.9,2.9
			v12c0,1.6,1.3,2.9,2.9,2.9h31.7c1.6,0,2.9-1.3,2.9-2.9v-23.2c0-1.6-1.3-2.9-2.9-2.9h-38.2c-9.3,0-16.9,7.6-16.9,16.9V237
			c0,9.3,7.6,16.9,16.9,16.9h56v14.9l-52.4-0.1c-8.9,0-16.4-6.7-17.4-15.5c-0.2-1.6-1.7-2.7-3.2-2.5c-1.6,0.2-2.7,1.6-2.5,3.2
			c1.4,11.8,11.4,20.6,23.2,20.6l55.3,0.1c1.6,0,2.9-1.3,2.9-2.9v-20.6C358.6,249.3,357.2,248,355.6,248"/>
		<path d="M279.8,183.5c1.6,0.2,3-1,3.2-2.6c1-8.9,8.5-15.7,17.4-15.7h34.8c9.1,0,16.8,7.1,17.5,16.1v42.9h-49.5
			c-1.6,0-2.9,1.3-2.9,2.9v12.6c0,1.6,1.3,2.9,2.9,2.9s2.9-1.3,2.9-2.9V230h49.5c1.6,0,2.9-1.3,2.9-2.9v-45.9c0-0.1,0-0.1,0-0.2
			c-0.9-12.1-11.2-21.5-23.3-21.5h-34.9c-12,0-21.9,9-23.2,20.8C277,181.9,278.2,183.3,279.8,183.5"/>
		<path d="M234.2,159.5c-1.6,0-2.9,1.3-2.9,2.9c0,1.6,1.3,2.9,2.9,2.9c9.2,0,16.7,6.8,17.5,15.9v72.2c-1,8.9-8.5,15.6-17.4,15.6
			h-31.6v-83h19.2c1.6,0,2.9-1.3,2.9-2.9c0-1.6-1.3-2.9-2.9-2.9h-22.1c-1.6,0-2.9,1.3-2.9,2.9v88.7v41.9H182V165.2
			c13.4,0,31.3,0.1,33.1,0.2c8.5,1.4,14.7,8.7,14.7,17.3v65.7h-19.2c-1.6,0-2.9,1.3-2.9,2.9s1.3,2.9,2.9,2.9h22.1
			c1.6,0,2.9-1.3,2.9-2.9v-68.6c0-11.6-8.3-21.2-19.6-23.1c-0.9-0.1-13.3-0.2-36.9-0.3l0,0c-0.8,0-1.5,0.3-2.1,0.9
			c-0.5,0.5-0.9,1.3-0.9,2.1v154.1c0,1.6,1.3,2.9,2.9,2.9h20.6c1.6,0,2.9-1.3,2.9-2.9v-41.9h31.6c12,0,21.9-9,23.2-20.8
			c0-0.1,0-0.2,0-0.3V181c0-0.1,0-0.2,0-0.3C256.4,168.5,246.4,159.5,234.2,159.5"/>
		<path d="M83.5,155c-19.9,0-37.5,12.8-43.7,31.7c-0.5,1.5,0.3,3.2,1.9,3.7c1.5,0.5,3.2-0.3,3.7-1.9c5.4-16.6,20.7-27.7,38.2-27.7
			c18.3,0,34.3,12.4,38.9,30.1c0.3,1.3,1.5,2.2,2.8,2.2h28.3c0.9,0,1.7-0.4,2.2-1c0.6-0.6,0.8-1.5,0.7-2.3
			c-5.5-35.6-36.8-62.5-72.9-62.5s-67.4,26.8-72.9,62.5l0,0c-0.6,3.7-0.9,7.5-0.9,11.3c0,1.6,1.3,2.9,2.9,2.9h25
			c0.2,2.9,0.6,5.8,1.4,8.6l0,0c5.3,20.2,23.5,34.4,44.5,34.4c20.2,0,37.9-13.2,43.9-32.2h22.6c-6.4,31.1-34.4,54.2-66.5,54.2
			C51,269,23,245.9,16.9,213.9c-0.3-1.6-1.8-2.6-3.4-2.3c-1.6,0.3-2.6,1.8-2.3,3.4c6.6,34.7,37.1,59.8,72.4,59.8
			c36.1,0,67.4-26.8,72.9-62.5c0.1-0.8-0.1-1.7-0.7-2.3c-0.6-0.6-1.4-1-2.2-1h-28.3c-1.3,0-2.5,0.9-2.8,2.2
			c-4.6,17.7-20.5,30.1-38.9,30.1s-34.4-12.5-38.9-30.2l0,0c-0.8-3.3-1.3-6.7-1.3-10.1c0-1.6-1.3-2.9-2.9-2.9H15.6
			c0.1-2.5,0.3-5,0.7-7.5l0,0c5-32.8,33.9-57.5,67.1-57.5c32.1,0,60.1,23,66.5,54.2h-22.6C121.4,168.1,103.8,155,83.5,155"/>
		<g>
			<g>
				<g>
					<path d="M663.3,220.5h-58.8c-8.4,0.4-12.8,4.4-13.2,12.1v26.7c0.3,7,4.7,10.7,13.2,11.1h58.2c8.1-0.4,12.3-4.2,12.6-11.6v-26.2
						C675,224.9,671,220.8,663.3,220.5z M661.2,254.6c-0.4,3.2-2.5,4.9-6.3,5.3h-43.1c-3.9-0.7-6-2.5-6.3-5.3v-17.3
						c0.3-3.9,2.5-6,6.3-6.3h42.6c4.2,0.4,6.5,2.5,6.8,6.3V254.6z"/>
					<path d="M585.1,194.2V193v-13.7c0.3-4.2,2.6-6.5,6.8-6.8h61.4c4.6-0.3,6.8,1.6,6.8,5.8V189c0,3.5-2.1,5.3-6.3,5.3h-62.5v10.5
						h71.4c7.7,0,11.6-3.5,11.6-10.5v-20.4c0-7.7-3.9-11.6-11.6-11.6h-31.1V154h-14.8v8.4h-33.4c-8.4,0-12.6,4.2-12.6,12.6v39.9
						c0,18.2-2.8,36.6-8.4,55.1l13.7,2.6c6-18.5,9-36.9,9-55.1v-7.8v-4.8L585.1,194.2L585.1,194.2z"/>
				</g>
				<g>
					<path d="M698.8,211l14.4,7.4c8.6-6.1,13.9-14.3,16.8-24.4h24.9v-10.5h-22.7c0.5-3,0.8-8.7,0.8-12.6h20.9v-10.5h-39.4v-6.6
						h-14.8l-0.2,17.1h18.7c0,5.6-0.3,9.9-1,12.6h-21.6V194h18.9C713,200.1,705.1,208.8,698.8,211z"/>
					<path d="M731.5,198.7c4.1,7.2,6.6,10.7,9.4,18.6h15.5c-2.6-6.9-6-13.7-9.3-18.6H731.5z"/>
					<path d="M792.6,221h-79.8c-7.7,0.7-11.9,4.4-12.6,11.1V252h14.2h3.8H791v4.7c0,3.5-2.3,5.3-6.8,5.3h-63.5c-4.1,0-6.2-1.7-6.3-5
						h-14.2v4.5c0.7,6.7,4.4,10.4,11.1,11.1h80.9c8.4-0.4,12.8-4,13.2-11.1v-28.9C804.5,225.6,800.3,221.7,792.6,221z M791.1,241.4
						h-76.7v-3.7c0.3-3.9,2.5-6,6.3-6.3h63.5c4.6,0,6.8,2.1,6.8,6.3L791.1,241.4L791.1,241.4z"/>
					<path d="M798.9,158.5h-26.2c-7.4,0.4-11.4,3.5-12.1,9.5v37.8c0.7,5.6,4,8.8,10,9.5h28.3c6.3-0.3,9.7-3.5,10-9.5V168
						C808.6,162.3,805.3,159.2,798.9,158.5z M794.5,197.5c0,4.6-2.1,6.8-6.3,6.8h-7.5c-3.9-0.3-5.8-2.6-5.8-6.8v-22.3
						c0.3-3.9,2.5-6,6.3-6.3h6.6c4.2,0.4,6.5,2.5,6.8,6.3L794.5,197.5L794.5,197.5z"/>
				</g>
			</g>
		</g>
		<g class="st0">
			<path d="M10.6,370.7h9.7c-1.7-2.7-3.3-5-4.8-7l3.2-2.3c1.3,1.6,3,3.9,5.1,6.8l-3.4,2.5h7.9c2.2-3.1,4.2-6.2,6-9.3l4.3,2.4
				c-1.9,2.5-3.8,4.8-5.6,6.9h9.1v3.8H10.6V370.7z M16.9,388.5l4.1,1.9c-2.2,4.5-4.3,8.6-6.4,12.2c-1.2-0.7-2.5-1.4-4-2.2
				C12.6,397.4,14.7,393.4,16.9,388.5z M12.3,381.9h12.2v-5.7h4.3v5.7h11.9v3.8H28.9v15.7c0,4.2-2,6.4-6.1,6.4c-1.7,0-3.7,0-5.8-0.1
				c-0.2-1.3-0.4-2.8-0.7-4.6c2.3,0.2,4.1,0.4,5.5,0.4c1.9,0,2.8-1,2.8-3.1v-14.7H12.3V381.9z M12.6,356.8h13
				c-0.9-1.6-1.8-3.4-2.9-5.3l3.8-1.8c1.2,2,2.4,4.1,3.5,6.2l-2,1h12.7v3.8H12.6V356.8z M34.2,388.8c2.2,3,4.2,5.8,5.9,8.4l-3.8,2.6
				c-1.8-3.1-3.6-6-5.6-8.7L34.2,388.8z M44.3,355c8.3-0.1,15.9-0.9,22.9-2.5l1.6,4.6c-7.9,1-14.7,1.7-20.2,2v14h21.9v4.1h-8.6v31.5
				h-4.4v-31.5h-8.9v2.9c0,12.3-2.9,21.9-8.8,28.7c-1-1.2-2-2.5-3.2-3.8c5.2-5.6,7.7-14,7.7-25C44.3,380,44.3,355,44.3,355z"/>
			<path d="M72.2,375.1h59.7v5.3H72.2V375.1z"/>
			<path d="M133.1,378.7c6.2-8.4,11.2-18,14.8-28.8l4.8,1.7c-1.8,4.7-3.6,9-5.6,13v44.5h-4.9v-35.3c-2.3,3.8-4.6,7.3-7.1,10.3
				C134.6,382.5,133.9,380.7,133.1,378.7z M150.5,370.9l14.2-1.6c-0.5-5.1-0.8-11.4-1-19h5.2c-0.1,6,0.2,12.1,0.8,18.5l22-2.4
				l0.5,4.4l-22.1,2.4c2.3,16.6,6.6,26.5,13.1,29.8c1.8,0.7,2.9,0.1,3.4-1.7c0.8-2.8,1.4-6.1,1.9-9.7c1.7,0.7,3.3,1.3,4.8,1.7
				c-0.6,3.9-1.3,7.3-2.2,10.3c-1.1,3.5-3.2,5.2-6.4,5.1c-3.4-0.1-6.7-2.2-9.8-6.2c-4.6-5.4-7.9-15-9.7-28.8l-14,1.5L150.5,370.9z
				 M174.5,355l3.1-3.2c3.5,2.7,7.1,5.7,10.8,8.9l-3.7,3.7C181.4,361.1,177.9,357.9,174.5,355z"/>
			<path d="M195.2,403.9c17.4-10.1,26.7-27.8,27.7-53.1h5.3c-0.2,4.3-0.6,8.4-1.3,12.2c5,20,14.3,33.2,28,39.5
				c-1.7,1.8-3.2,3.6-4.4,5.2c-11.9-6.7-20.4-18.6-25.4-35.7c-4.4,16.5-13.1,28.6-26,36.3C197.9,407,196.6,405.5,195.2,403.9z"/>
			<path d="M257.4,400.1h26.3v-40h-22.9v-4.8h51.1v4.8h-23v40h26.4v4.7h-57.9V400.1z"/>
			<path d="M319.1,365.8h13.3c0.3-1.8,0.5-3.9,0.6-6.4h-5.9c-1.6,2.2-3.4,4.3-5.5,6.2c-0.8-1.1-1.7-2.3-2.8-3.6
				c4.2-3.5,7.1-7.7,8.7-12.4l4.4,1c-0.6,1.8-1.4,3.4-2.3,5h17.9v3.8h-10c-0.1,2.4-0.3,4.5-0.5,6.4h12.3v3.8h-13.1
				c-0.1,0.4-0.2,0.8-0.4,1.1c4,2,8.3,4.4,13,7.2l-2.8,3.5c-4.1-2.8-8.1-5.3-11.9-7.3c-2.7,4.2-7.3,7.7-13.6,10.3
				c-0.8-1.2-1.7-2.6-2.8-4c7.2-2.6,11.7-6.3,13.6-10.9H319L319.1,365.8L319.1,365.8z M328,382h40.2v27.3h-4.4v-2.7h-31.3v2.7h-4.4
				V382H328z M363.8,385.8h-31.3v6.6h31.3V385.8z M332.5,402.7h31.3v-6.5h-31.3V402.7z M351.2,355h22.9v24.6h-4.4V376h-14v3.6h-4.4
				V355H351.2z M369.7,358.8h-14v13.3h14V358.8z"/>
			<path d="M402.3,355.2c3.6,4.7,6.8,9.3,9.5,13.6c-1.5,1-2.9,2-4.1,2.8c-0.8-1.4-1.6-2.8-2.5-4.2c-9.8,0.7-17.6,1.4-23.5,2l-1.9-5
				c1.8-1,3.7-2.8,5.8-5.4c2.2-2.9,4.4-6.1,6.5-9.7l4.7,1.7c-3.3,4.8-6.8,9.3-10.5,13.6c6-0.4,11.5-0.8,16.4-1.2
				c-1.3-1.9-2.6-3.9-4.1-5.9L402.3,355.2z M387.8,408.3h-4.7v-35.4h24.4v28.4c0,4.3-2,6.5-6,6.5c-1.8,0-4,0.1-6.8,0.1
				c-0.2-1.2-0.5-2.8-0.9-4.6c2.5,0.2,4.5,0.3,6.1,0.3c2,0,2.9-1,2.9-3.1v-5h-15V408.3z M402.8,376.8h-15v5.8h15V376.8z
				 M387.8,391.9h15v-5.8h-15V391.9z M413.3,379.4h4.7v9.9c5.7-2.1,11.6-4.9,17.8-8.3l2.7,4.1c-6.5,3.4-13.4,6.5-20.5,9.2v5.2
				c0,2.5,1,3.8,2.9,3.8h8.8c2,0,3.2-1,3.5-2.9c0.3-1.8,0.5-4.4,0.7-7.9c1.5,0.6,3.1,1.2,4.7,1.7c-0.3,3.5-0.7,6.2-1,8
				c-0.5,3.5-3,5.3-7.5,5.3h-10c-4.6,0-6.8-2.3-6.8-7L413.3,379.4L413.3,379.4z M413.4,350.1h4.7v10.3c5.5-2.2,11-4.8,16.4-7.9
				l2.7,4.1c-6.2,3.2-12.6,6.1-19.1,8.7v3.5c0,2.7,1.1,4,3.2,4h7.6c2.5,0,3.9-1,4.3-3.1c0.3-1.7,0.5-4.2,0.7-7.5
				c1.5,0.6,3.1,1.2,4.7,1.7c-0.3,3.2-0.7,5.8-1,7.8c-0.6,3.5-3.3,5.2-8.1,5.2h-8.8c-4.8,0-7.3-2.4-7.3-7.2L413.4,350.1L413.4,350.1
				z"/>
			<path d="M441.3,376.5H457V359h-13v-4.7h53.8v4.7h-12.2v17.5h14.8v4.7h-14.8v27.4h-4.9v-27.4h-18.8c-0.1,7.3-1.2,12.8-3.2,16.3
				c-2,3.9-6.5,7.9-13.5,11.8c-1-1.4-2.2-2.8-3.4-4.2c6.1-3.1,10.2-6.4,12.2-9.8c1.8-2.7,2.8-7.5,2.9-14.2h-15.6L441.3,376.5
				L441.3,376.5z M461.9,376.5h18.7V359h-18.7V376.5z"/>
			<path d="M505.4,366.2c3.1,2.2,6.6,4.9,10.6,8c-1.4,1.7-2.5,3-3.4,3.9c-3.8-3.4-7.2-6.2-10.1-8.5L505.4,366.2z M509.6,383
				c1.4,0.9,2.9,1.6,4.3,2c-1.6,6.8-3.5,14.6-5.5,23.4l-4.6-1.6C506,398.6,508,390.7,509.6,383z M508,350.8c3.2,2.4,6.4,5.1,9.8,8.1
				c-1.4,1.4-2.6,2.6-3.6,3.7c-3.5-3.4-6.6-6.3-9.2-8.5L508,350.8z M529.7,365.1h7.8c0.9-2.3,1.7-4.6,2.5-7.1h-15.2v17.3
				c0,15.7-3.1,27-9.2,33.8c-1-1.2-2.1-2.5-3.5-3.7c5.5-6.2,8.3-16.2,8.3-30V354h41.7v4.1h-16.8c-1.1,2.4-2.2,4.8-3.4,7.1h15.8v24.6
				h-4.3v-1.6h-7.7v14.1c0,4.3-2.1,6.4-6.2,6.4c-1.4,0-3.1,0-5.2-0.1c-0.2-1.2-0.5-2.6-0.8-4.1c2,0.2,3.7,0.2,5.2,0.2
				c1.8,0,2.8-1,2.8-2.9v-13.7h-7.3v1.6h-4.5V365.1z M524.3,403.9c3.4-3.6,6.4-7.7,9.1-12.3l3.8,2.3c-3,4.8-6.2,9.1-9.4,12.7
				L524.3,403.9z M553.4,369.1h-19.3v5.6h19.3V369.1z M534,384.2h19.3v-5.7H534V384.2z M562,403.3l-3.8,2.9
				c-2.8-4.3-5.9-8.4-9.2-12.5l3.5-2.5C556.1,395.5,559.2,399.5,562,403.3z"/>
			<path d="M564.2,376.5h15.7V359h-13v-4.7h53.8v4.7h-12.2v17.5h14.8v4.7h-14.8v27.4h-4.9v-27.4h-18.8c-0.1,7.3-1.2,12.8-3.2,16.3
				c-2,3.9-6.5,7.9-13.5,11.8c-1-1.4-2.2-2.8-3.4-4.2c6.1-3.1,10.2-6.4,12.2-9.8c1.8-2.7,2.8-7.5,2.9-14.2h-15.6V376.5z
				 M584.8,376.5h18.7V359h-18.7V376.5z"/>
			<path d="M626,360.8h28.9v4.4h-17c0,3.6-0.1,6.8-0.2,9.8h13.8c-0.4,9.8-0.8,17.7-1.1,23.7c-0.4,5.3-2.6,8-6.8,8.2
				c-2.4,0-4.7,0-6.9-0.1c-0.2-1.5-0.6-3.2-1-5c2.6,0.3,4.7,0.4,6.1,0.4c2.4,0,3.8-1.5,4-4.6c0.4-4.7,0.7-10.7,1-18.2h-9.1
				c-0.1,13-3.3,22.9-9.5,29.7c-0.9-1.4-2-2.8-3.2-4.2c3.8-4.2,6-8.8,6.8-13.6c1-4.5,1.5-13.2,1.5-26.1h-7.2L626,360.8L626,360.8z
				 M636.1,351.7l4.1-2.2c1.7,2.6,3.4,5.3,4.9,8.3l-4.2,2.2C639.3,356.9,637.7,354.1,636.1,351.7z M662.5,349.6l4.8,0.8
				c-0.9,3.8-2,7.4-3.4,11h20.9v4.4h-5c-0.8,11.8-3.6,21.3-8.4,28.2c3.6,4.5,8.3,7.9,14,10.4c-1.3,1.8-2.4,3.3-3.3,4.7
				c-5.4-2.9-10-6.6-13.8-11.2c-3.9,4.3-8.6,8.3-14.1,11.8c-0.9-1.2-2.1-2.4-3.4-3.8c6-3.6,10.8-7.6,14.6-11.9
				c-3.5-5.7-5.7-12.9-6.7-21.7c-1.2,2-2.5,4-3.8,6c-0.8-1.2-1.8-2.5-3-3.8C657.1,367.3,660.6,359,662.5,349.6z M675.1,365.8h-12.8
				c0.6,9.8,2.7,17.8,6.2,24C672.4,383.7,674.6,375.7,675.1,365.8z"/>
			<path d="M687.6,382.5h26.6v-25.1h-23.9v-4.6h53.1v4.6h-24.1v25.1h26.8v4.6h-26.8v22.1h-5v-22.1h-26.6L687.6,382.5L687.6,382.5z
				 M693.4,364l3.8-2.6c4.5,5.2,8.3,10.3,11.6,15.2l-4.3,3.2C701.4,374.7,697.7,369.4,693.4,364z M723.9,376.5
				c4.4-4.6,8.4-9.8,11.9-15.4l4.5,2.9c-4.5,6.2-8.7,11.4-12.7,15.6L723.9,376.5z"/>
			<path d="M790.8,357.8c6.3,5.8,12.2,11.8,17.8,17.9l-4.3,3.5c-1.6-1.9-3.2-3.7-4.9-5.6c-18,0.8-31.7,1.4-41.2,2
				c-2.2,0.2-4.3,0.5-6.4,1l-2-5.2c1.8-0.7,3.5-1.6,5-2.8c6.8-5.6,13.1-12.1,18.8-19.4l4.5,2.8c-6,7-12.3,13.3-18.8,18.8
				c12.3-0.4,24.3-0.8,36.2-1.3c-2.7-3-5.5-5.9-8.3-8.7L790.8,357.8z M799.6,381.6v27.3h-4.9v-4h-33v4h-4.9v-27.3H799.6z
				 M794.7,386.1h-33v14.5h33V386.1z"/>
		</g>
	</g>
</g>
<g>
	<path class="st1" d="M24.3,50.7c3.1,0,5.1,0.3,6.2,0.9c1.1,0.6,1.8,1.3,2,1.9c0.5,0.7,0.3,1.5-0.6,2.4c-0.8,0.6-1.7,1-2.8,1
		c-1,0-2.2,0.9-3.4,2.6c-1.8,2.7-2.8,4.2-2.8,4.5c-0.8,1.1-1.1,1.8-1.1,2c0,0.4,1.2,0.4,3.6,0c1.1-0.2,3.1-0.3,5.9-0.3
		c1.6,0.3,2.8,0.8,3.4,1.5c0.7,0.8,1.1,1.5,1.1,2.1c0,0.8-0.6,2.4-1.9,4.6c-1.5,1.6-2.4,2.9-2.9,3.9c-0.1,0.3-0.1,0.4-0.1,0.3
		c0.1-0.1,0.4-0.3,1-0.6c0.3-0.1,0.8-0.4,1.6-0.9s1.4-0.9,1.8-1.1c1.2-0.6,2.2-0.8,2.8-0.6c0.4,0.5,0.5,1.1,0.2,1.8
		c-0.5,1.1-1.6,2.3-3.2,3.4c-0.5,0.3-2.8,1.8-7.1,4.5c-2.8,1.6-4.8,2.4-6.2,2.4c-1.5-0.3-2.6-0.7-3.2-1.3c-0.6-0.6-1.1-2.9-1.5-6.7
		L17,73.7l-1.8,4.4c-1.4,3.1-2.2,5.4-2.6,7.1c-0.5,1.5-1.1,2.5-1.5,3c-0.9,0.3-1.6,0.1-2.3-0.6c-0.6-0.5-0.9-0.9-0.9-1.3
		s0.2-1.1,0.6-2c0-0.2,1.7-4,5-11.4c3-6.1,5.4-10.5,7.3-13.5c2-3.1,3-4.7,3-4.8c-1-0.2-2.3-0.2-3.8-0.2c-3.2,0-5.6,0.3-7.4,0.8
		c-2.4,0.5-3.8,0.6-4.1,0.3c-0.4-0.2-0.6-0.7-0.6-1.5c0.2-0.4,1.3-0.9,3.2-1.7c1.8-0.6,3.7-1.1,5.6-1.5L24.3,50.7L24.3,50.7z
		 M26.3,69.5c-2-0.3-3.5-0.2-4.5,0.2c-0.5,0.3-0.6,2.5-0.3,6.5c0.1,3.4,0.4,5.1,0.7,5.2s1-0.5,2-1.7c1.7-1.7,3.2-3.7,4.3-5.9
		c0.3-0.6,0.6-1.3,0.9-1.9c0.3-0.6,0.5-1,0.5-1.3c0.1-0.3,0-0.5-0.1-0.6C29.9,69.7,28.7,69.5,26.3,69.5z M48.4,35
		c0.5,0,0.8,0.2,0.8,0.5c0.1,0.4,0,1.2-0.1,2.6s-0.2,2.3-0.1,2.7c0.1,0.4,0.5,0.8,1.2,1.2c0.8,0.5,2.9,0.7,6.4,0.6
		c3.4-0.3,5.2-0.1,5.6,0.6c0.5,0.5,0.5,1.1,0,1.9c-0.3,0.8-2.1,2.6-5.6,5.4c-3,2.4-5.6,4.3-7.9,5.6c-0.6,0.4-1.2,0.9-1.7,1.5
		s-0.7,1-0.7,1.3c-0.2,0.4-0.5,2.1-0.9,5l-0.2,4c1.3,0,2.9-0.1,4.7-0.2c2.2,0,3.5-0.2,3.9-0.7s0.6-2,0.6-4.6c0-3.5,0.3-5.4,0.9-5.7
		c0.8-0.3,1.3-0.1,1.7,0.6c0.5,0.9,0.8,2.8,0.8,5.8c0,2.4,0.1,3.9,0.3,4.3c0.2,0.5,0.8,0.9,1.9,1.2c1.6,0.3,2.6,0.7,2.8,1.2
		c0.4,0.6,0.3,1.6-0.2,2.9c-0.2,0.2-0.5,0.4-0.7,0.9c-0.3,0.4-0.6,0.9-1,1.4s-0.7,0.9-0.9,1.1c-1,0.9-1.4,1.5-1.3,1.9
		c0,0.4,0.7,0,2.2-1.1c0.9-0.5,2.2-1.1,4-1.7c1.2-0.3,2-0.2,2.2,0.3c0,0.4-0.3,1.1-0.9,1.9c-1,1.2-2.1,2.1-3.3,2.6
		c-1.5,0.7-2.3,1.1-2.3,1.3s0.8,1.7,2.3,4.3c1.5,2.7,2.6,4.4,3,5.3c0.5,0.9,0.9,1.3,1,1.3s0.3-0.4,0.4-1.1c0.2-0.5,0.5-3.4,0.9-8.4
		c0.3-3.7,0.2-7.6-0.3-11.5c-0.3-2.6-0.9-4.9-1.9-7.1c-0.8-1.3-2.6-3.3-5.3-6c-2.7-2.7-3.9-4.3-3.6-4.6c0.4-0.4,0.8-0.6,1.1-0.6
		c0.6,0,1.8,0.5,3.3,1.5c1.4,0.8,3.2,2.4,5.3,5c1.9,1.9,3.4,3.9,4.3,6.2c0.9,2,1.4,5.1,1.6,9.2c0.3,3.1,0.2,7.8-0.3,14.1
		c-0.3,4.8-0.6,7.8-1,9c-0.2,0.2-0.4,0.4-0.7,0.7s-0.6,0.6-1,0.9c-0.8,0-1.7-0.4-2.6-1.3c-0.8-0.8-1.9-2.3-3.3-4.6
		c-1.5-2.5-2.6-4.7-3.4-6.7c-0.8-1.6-1.2-2.4-1.3-2.4c-0.2-0.1-0.4,0.6-0.5,2.2l-0.2,2.5c-0.4,4.2-0.4,7.9,0,10.9
		c0,3.5-0.2,5.5-0.6,5.9c-0.3,0.5-0.8,0.8-1.7,0.8c-0.8,0-1.3-0.4-1.7-1.1c-0.5-0.3-0.9-1.4-1.3-3.3c0-2.1,0.1-3.4,0.2-3.9
		c0.2-0.5,0.4-3,0.8-7.3l0.3-6.2l-4.5,2.4c-1.7,0.8-3.7,1.9-5.8,3.5c-0.6,0.9-1.3,1.4-2,1.4s-1.2-0.4-1.6-1.1
		c-0.5-0.9-0.6-4-0.2-9.3c0-3.1,0.3-7.5,0.8-13.2c0.3-3,0.7-5.4,1.1-7.1c0.4-1.2,0.9-2.5,1.7-3.7c0.8-0.8,1.1-1.5,1.1-2.2
		c0-0.6,0.8-1.4,2.3-2.3c1.1-0.6,2.7-1.9,4.8-3.9c1.7-1.5,2.4-2.3,2-2.4l-1.2-0.2c-1.6,0-3.2-0.6-4.9-1.9c-1.6-0.8-2.6-1.8-3-3.1
		c-0.4-1-0.4-2.1,0-3.2c0.4-1,0.9-1.8,1.5-2.4C46.9,35.4,47.6,35,48.4,35z M53.7,71.9c-0.4-0.2-1.9-0.4-4.5-0.4h-5v6.4
		c0,4.3,0.2,6.5,0.6,6.5c0.6,0,2.8-1.6,6.7-4.7c1.2-1.4,2-2.3,2.3-2.8s0.4-1.4,0.4-2.5C54.3,72.9,54.1,72.1,53.7,71.9z"/>
	<path class="st1" d="M100.2,49.7c0.2,0,0.6,0,1.3,0.1s1.2,0.1,1.6,0.1c1.3,0.4,1.9,0.8,1.9,1.3c0.1,0.2,0.1,0.5,0,0.8
		c-0.1,0.3-0.3,0.5-0.6,0.6c-0.5,0.5-0.7,1-0.7,1.6s0.2,2.2,0.5,4.9c0.2,2.2,0.5,5.3,1.1,9.3l1,3.2c0.2,0.2,0.5,0.1,0.9-0.2
		c0.4-0.4,1.4-0.6,3.1-0.6s2.7-0.2,3.1-0.6c0-0.4-0.9-1.3-2.8-2.5c-2.1-1.4-3.4-2.4-3.7-3.1c-0.4-1.2-0.5-1.9-0.2-2
		c0-0.5,0.3-0.7,0.8-0.7c0.2,0,2,0.9,5.4,2.8c2.4,1.4,4.2,2.8,5.6,4.1c0.3,1,0.1,2-0.6,2.8c-0.5,0.8-1.4,1.4-2.8,1.8
		c-1,0.1-1.5,0.2-1.5,0.3s0.5,0.6,1.5,1.2c1.6,1.1,2.4,2.1,2.4,2.8c0.3,0.9,0.3,1.6,0,2.4c0,0.5-0.6,0.7-1.8,0.7
		c-0.9,0-2.7-1.3-5.3-3.9c-2.3-2.6-3.7-3.7-4.1-3.3c0,0.3-0.4,0.6-1.3,1c-0.8,0.4-1.5,0.4-2.3,0c-0.6-0.4-1.1-1.1-1.5-1.9
		c-0.4-0.9-0.8-3.1-1.1-6.7c-0.1-1.1-0.3-3-0.6-5.5s-0.4-4.1-0.4-4.8c-0.4-3.2-0.5-5-0.3-5.4C98.9,50,99.3,49.7,100.2,49.7z
		 M136.6,51.2c3.2,0,5.5,0.4,6.7,1.1c1.4,0.6,2,1.4,2,2.3s-0.7,1.7-2,2.1c-2.6,1.8-5.8,4.1-9.5,6.7c-3.9,3-6.2,4.8-6.8,5.4
		s-0.6,1.3,0,2c0.8,1,1.1,2.3,1.1,3.8c-0.4,1.6-0.4,2.4,0,2.4c0.4,0,1.4-0.3,3-0.9c1.7-0.6,2.6-1.2,2.6-1.6s0.3-0.8,0.9-1.1
		c1,0,2,0.1,3,0.2c1.6,0.3,2.8,0.7,3.4,1.3c0.4,0.5,0.4,1.2,0.2,2c-0.6,0.8-1.3,1.1-1.9,1.1c-1.8,0.6-4.2,1.2-7.1,1.7
		c-3.6,0.9-5.7,1.8-6.2,2.8c-0.1,0.2-0.3,0.5-0.6,0.9s-0.5,0.8-0.8,1.2c-0.2,0.4-0.6,0.9-0.9,1.5c-0.4,0.6-0.7,1.1-1,1.5
		c-2.4,3.2-4.4,5.7-5.9,7.3c-3.6,3-5.4,4.5-5.6,4.7c-1.8,1.1-3.3,1.8-4.3,2c-1.4,0.5-2.5,0.6-3.3,0.3c-1-0.4-2-1.2-2.8-2.6
		c-1-1.6-1.4-2.5-1.1-2.8c0.4-0.4,0.8-0.6,1.1-0.6c0.5,0,1,0.5,1.7,1.4c0.6,0.9,1.3,1.4,2.1,1.4c0.9,0,1.9-0.2,3-0.7
		c0.5-0.3,2.2-1.7,5-4.3c2.6-2.5,4.4-4.6,5.3-6.5c0.5-0.5,0.9-1,1.3-1.5s0.6-0.9,0.7-1.3s0.1-0.5,0-0.5c0-0.1-0.8,0.4-2.4,1.3
		s-5.5,3.2-11.6,6.9c-1.1,0.7-2.1,1.1-3,1.1s-1.7-0.3-2.3-0.9c-0.8-0.6-1.1-1.4-1.1-2.1c0-0.8,0.2-1.4,0.6-1.7
		c0.4-0.4,1.1-0.6,2.3-0.6c0.9,0.3,3.2-0.5,7.1-2.4c5.5-3.1,9.7-5.3,12.6-6.4c0.6,0,1-1,1.3-2.9c0.4-1.6,0.4-2.9,0-3.9
		c-0.1-0.5-0.2-0.8-0.4-1c-0.1-0.2-0.3-0.2-0.4-0.1c-0.4,0.4-0.8,0.2-1.1-0.6c-0.3-0.5-0.3-0.9-0.2-1.1s0.7-0.8,1.7-1.7
		c0.2-0.2,0.5-0.4,0.9-0.8s0.9-0.7,1.3-1.1c0.4-0.4,0.9-0.7,1.4-1.1s0.9-0.7,1.1-1c1.9-1.9,3.9-3.6,5.9-5c2-1.6,2.8-2.5,2.5-2.8
		l-1.1-0.2c-1-0.4-3.1-0.4-6.2,0c-1.5,0.2-4.6,0.7-9.3,1.5c-2.3,0.5-4.9,1.3-8,2.4c-2,0.9-3.2,1.1-3.7,0.6c-0.3-0.3-0.3-0.8,0-1.5
		c0-0.4,1.1-1.1,3.4-2.3c1.6-1,4-1.8,7.2-2.4c0.9-0.2,2.4-0.6,4.5-1.1s3.6-0.8,4.5-1C132.5,51.5,135.6,51.2,136.6,51.2z M114.9,36.1
		c0.8,0,2.1,0.8,4.1,2.4c1.4,1,3.1,2.3,5.3,4.1c1.2,1.1,1.8,2,1.8,2.5s-0.6,1.5-1.9,2.8c-1.3,1.3-2.7,2.3-4.2,3
		c-1,0.5-2.6,1-4.8,1.4c-2,0.4-3.2,0.5-3.6,0.3c-0.8-0.4-1.1-0.8-1.1-1.1c0-0.5,0.9-1,2.7-1.6c0.2-0.1,1.9-0.8,5-2
		c1.7-0.8,2.6-1.5,2.6-1.9c0.3-0.5,0.1-1-0.6-1.6c-1.1-0.5-2.5-1.7-4.1-3.4c-1.9-1.9-2.8-3.2-2.6-3.9
		C113.4,36.4,113.9,36.1,114.9,36.1z M140.6,83.8c0.4,0,0.9,0.6,1.6,1.7c0.9,1.2,1.6,2.8,2.3,4.8c0.3,0.5,0.8,2.2,1.5,5
		c0.5,1.9,0.9,3.9,1.1,6.2c0.4,1.7,0.6,2.9,0.6,3.4s-0.2,1-0.6,1.3c-0.8,0.8-1.5,1.1-2.3,1.1c-1,0-1.6-0.4-2-1.1
		c-0.7-0.4-1.2-2.6-1.5-6.7c0-3-0.4-6.3-1.3-10.1c-0.8-2.8-0.9-4.3-0.6-4.7C139.8,84.1,140.1,83.8,140.6,83.8z"/>
	<path class="st1" d="M184,39.8c1.2,0.6,2.4,1.6,3.3,2.8c1.5,1.8,2.3,2.9,2.3,3.3c0,0.8-0.6,2.1-1.7,4c-1,1.8-3.2,4.5-6.7,8
		c-0.5,0.6-1,1.2-1.6,1.8s-1,1.1-1.4,1.5s-0.7,0.7-1,1.1c-0.3,0.4-0.6,0.7-0.8,0.9c1.2,0.4,2.5,0.8,4.1,1.1c2.2,0.6,3.9,1.2,5,1.7
		c0.6,1.1,0.9,1.8,0.9,2c0,1-0.5,2.3-1.5,3.9c-1.2,2.4-2.8,4.4-4.7,6.2c-1.8,2-2.6,3.1-2.2,3.2c0.2,0.1,0.8,0.2,1.9,0.2
		c1.6,0,2.8,0.2,3.6,0.6c0.5,0.3,1.2,1,2,2.3c0.3,0.8,0.6,1,1.1,0.7c0.6-0.5,2.3-2.2,5-5.2s4.5-4.9,5.3-5.6s1.8-1.2,3.1-1.5
		c1.8-0.3,2.9-0.2,3.4,0.3c0.5,0.3,0.9,1.2,1.3,2.8c0.1,0.4,0.4,1.9,0.9,4.7c0.2,1.1,0.3,1.9,0.5,2.1c0.2,0.3,0.5,0.3,0.9,0.1
		c0.4,0,2.3-0.5,5.6-1.6s6.4-1.6,9.4-1.6c2-0.2,3.3-0.3,3.9-0.2s1.2,0.5,2,1.1c0.5,0.6,0.8,1.1,0.8,1.4c0.1,0.3-0.1,0.9-0.5,1.8
		c-0.8,1.1-2.1,2.6-4.1,4.5c-0.6,0.5-1.6,1.3-2.7,2.3c-1.2,1-1.8,1.5-2,1.7c-0.7,0.5-1.1,0.8-1.1,0.8c0,0.1,0.5-0.1,1.6-0.3
		c0.4,0,1.1-0.1,2.1-0.2c1.1-0.1,1.8-0.2,2.3-0.2c1.5,0,2.6,0.3,3.2,0.9c0.4,0.6,0.1,1.5-0.9,2.6c-1.1,1.1-2.7,1.7-4.7,1.7
		c-2.7,0-4.6,0.3-5.6,0.8c-1.1,0.2-3.1,1.1-6.1,2.8c-2.6,1.5-4.1,2.3-4.5,2.3s-0.9-0.2-1.5-0.6c-0.4-0.8-0.6-1.4-0.6-1.9
		c0-0.8,0.3-1.6,1-2.4c0.8-0.6,1.1-1.2,1.1-1.5c0-0.4-0.4-1.4-1.1-2.9c-1.4-3.4-2.1-5.1-2.1-5.3c-0.8-3-1.4-5.6-1.8-7.9
		c-0.2-0.9-0.4-1.8-0.6-2.8s-0.4-1.8-0.6-2.4c-0.1-0.6-0.2-0.9-0.2-1h-0.6c0,0.1-0.2,0.5-0.6,1.1s-1.1,1.6-2.1,2.8s-1.8,2.4-2.6,3.5
		c-3.6,4.4-6.3,8.1-8,11.2c-0.6,0.9-1.5,2-2.6,3.5s-1.7,2.4-2.1,2.6c-0.9,1.5-1.8,2.3-2.7,2.3c-1,0-1.7-0.3-2.3-0.9
		s-0.9-1.3-0.9-2.3s0.9-2.8,2.8-5.3c1.7-2.8,2.7-4.7,3-5.6c0.3-1.1,0.2-1.7-0.2-1.9c-0.1,0-1.5-0.2-4.2-0.6
		c-2.1-0.3-3.5-0.9-4.4-1.8c-0.8-0.8-1.2-1.4-1.2-1.9c0.3-0.6,1.5-1.5,3.5-2.8c2-1.5,3.7-2.9,5-4.5c1-1.4,1.7-2.7,2.1-4
		c0.2-0.7,0.2-1.2,0-1.4s-0.7-0.5-1.6-0.8c-0.5-0.1-2.4-0.4-5.6-0.9c-2.4-0.4-3.7-0.8-4.1-1.4c-0.5-0.3-0.6-0.9-0.2-1.8
		c0.4-0.8,1.3-1.6,2.8-2.4c1.3-0.9,3.3-2.9,5.9-6.2c2.9-3.7,4.4-6,4.7-6.7c0.6-0.9,0.9-1.5,0.9-1.9s-0.2-1-0.6-1.8
		c-0.8-1-1.2-1.6-1.5-1.9c-0.4-0.4-0.6-0.9-0.6-1.4c0-0.6,0.2-1,0.6-1.4C182.5,40,183.1,39.8,184,39.8z M210.9,36.1
		c0.2,0,0.9,0.6,2,1.8c1,1.1,1.4,2.4,1.1,3.8l-1.1,4.5c-0.6,1.5-0.9,2.4-0.9,2.9c0,0.4,0.3,0.6,0.9,0.6s2.2,0.6,4.7,1.9
		c4.6,2.6,7.1,4.1,7.4,4.3c2,1.4,4.8,3.7,8.4,6.9c3,3,4.5,4.6,4.5,4.9l-1.1,2.1c-0.8,1.2-1.5,1.6-2.3,1.2c-0.7-0.4-2.1-1.6-4.2-3.6
		c-2.2-2.2-3-3.4-2.4-3.7c0.1-0.1,0.2-0.1,0.2-0.2s-0.1-0.3-0.4-0.6c-0.2-0.3-0.5-0.6-0.8-0.8c-0.3-0.2-0.7-0.6-1.3-1.1
		c-0.5-0.5-1.1-1-1.8-1.5s-1.4-1-2.1-1.5s-1.2-0.9-1.4-1.1c-0.3-0.1-1.1-0.6-2.6-1.4c-1.5-0.8-2.7-1.5-3.5-1.9
		c-2.6-1.1-4-1.6-4.1-1.4c-0.1,0.1-0.2,0.2-0.3,0.4c-0.1,0.1-0.2,0.3-0.4,0.6c-0.2,0.3-0.4,0.6-0.6,0.9c-0.2,0.3-0.5,0.6-0.7,1
		c-0.3,0.4-0.6,0.8-0.9,1.1c-0.8,1.1-3.3,4-7.5,8.7c-3.7,3.6-6.5,6.1-8.4,7.5c-2,1.6-3.2,2.4-3.7,2.4c-0.4,0-0.8-0.2-1.3-0.6
		c-0.6-0.7-0.8-1.2-0.6-1.5c0.6-0.6,1.7-1.5,3.3-2.6c1.8-1,4.2-3.3,7.3-6.7c2.8-2.8,5.5-5.8,8.2-9.2c2-2.7,3.5-5,4.5-6.8
		c0.5-0.9,0.9-2.3,1.4-4.1c0.2-1.1,0.1-2.4-0.2-3.7c-0.3-0.8-0.3-1.6,0-2.4C210.4,36.4,210.6,36.1,210.9,36.1z M221.6,64.4
		c1.1,0.4,1.7,0.7,1.9,0.9c0.6,0.5,0.9,1,0.9,1.4c0,0.6-0.7,1.6-2.2,3c-1.4,1.7-2.4,2.4-3.2,2c-0.5,0-0.8-0.6-0.8-1.7
		c0-0.6-0.2-1-0.6-1.1s-1.8-0.1-4.2,0c-3.5,0.3-6.2,0.8-8.2,1.7c-2.1,1-3.6,1.5-4.5,1.5c-0.8,0-1.1-0.4-1.1-1.1
		c0-0.9,0.5-1.6,1.5-2.4c1.2-0.8,3-1.5,5.3-2.1c3-0.9,5.9-1.4,8.8-1.7C217,64.5,219.1,64.4,221.6,64.4z M220.8,83.3
		c-0.9,0-2.4,0.2-4.3,0.6c-0.5,0.1-2.6,0.7-6.2,1.7c-1.6,0.7-2.6,1.2-2.8,1.5s-0.3,0.9-0.2,1.9c0,1,0.4,2.4,1.1,4.1l1.5,2.6
		c0.4,0,2.1-1.3,5-3.9c3-2.6,4.9-4.6,5.8-5.8c1-1,1.5-1.8,1.5-2.4C221.8,83.3,221.4,83.3,220.8,83.3z"/>
	<path class="st1" d="M289.6,32.7c0.2,0,1,0.6,2.6,1.7c1,1,1.6,2,2,3.2c0.2,0.6-0.4,3.2-1.7,7.8c-1.1,3.5-2.3,7.1-3.6,10.7
		c-0.3,0.6-0.6,1.3-0.9,2c-0.3,0.7-0.5,1.3-0.6,1.6c-0.1,0.3-0.2,0.5-0.2,0.6c0,0.3,2.4,0.3,7.1,0c5,0,8.1,0.3,9.5,0.8
		c1.5,0.6,3,1.6,4.5,3c1.2,1.7,2,3.1,2.3,4.1s0.1,3-0.6,6.2c-0.9,3.4-1.8,6-2.8,8c-1.6,3.4-2.7,5.4-3.3,6.2
		c-0.6,1.2-2.4,3.2-5.3,6.2l-5.4,5.4c-1.1,0.8-2,1.1-2.6,1.1s-2.3-0.6-5.3-1.7c-2.5-1.1-4.5-2.1-5.9-3c-0.8-0.8-1.1-1.4-1.1-1.8
		c0.4-0.3,1.8-0.1,4.3,0.6c2.5,0.6,4.5,0.8,6.2,0.6c1.2-0.2,2.2-0.5,3-1c0.7-0.4,2-1.6,3.7-3.5c2.6-2.7,4.7-5.5,6.2-8.5
		c1.4-2.5,2.5-5,3.4-7.5c0.6-1.7,0.9-3.4,0.9-5c0-1.5-0.3-2.5-0.9-3.1c-0.5-0.9-1.8-1.7-3.7-2.3c-1.9-0.6-4.9-0.9-8.9-0.9l-6.4,0.3
		l-3,8.2c-1.4,3.5-3,7.4-4.9,11.8c-0.4,0.8-1.1,2.2-2.3,4.2c-1.1,2.1-1.8,3.3-2.1,3.8c-3.4,5.1-5.3,8-5.9,8.8
		c-2,2.7-3.3,4.2-3.9,4.5c-0.5,0.4-1.2,0.4-2.3,0c-0.8-0.4-1.1-0.9-1.1-1.5c0-1,0.3-2,0.8-3.2c0.6-1.5,1.2-2.1,1.8-1.8
		c0.3,0.2,0.7,0,1.3-0.8c0.6-0.7,1.5-2,2.9-3.9c2.6-4.2,4.8-8.1,6.7-11.8c3.6-7.7,5.4-11.8,5.6-12.3c1.5-3.9,2.1-6,2-6.2
		c-2.3,0-4.7,0.2-7.1,0.6c-1,0.1-2.3,0.1-4.1,0.2c-1.8,0.1-3.3,0.2-4.7,0.3c-1.4,0.1-2.5,0.2-3.3,0.3c-2.5,0.2-4,0.3-4.5,0.2
		s-0.8-0.4-0.8-1c0-0.7,0.7-1.2,2-1.5c6.7-1.1,13-1.8,18.9-2.2c2.4-0.3,4-0.7,4.6-1.3s1.6-2.5,2.8-5.7c0.3-0.9,0.6-1.9,0.9-3
		s0.7-2.1,1-3c0.4-0.9,0.7-1.8,1-2.8s0.6-1.7,0.8-2.2c0.6-2.4,1-3.9,1-4.4c0-0.6-0.3-1.4-1-2.6c-0.7-1.3-0.9-2.2-0.6-2.8
		C289,32.9,289.5,32.7,289.6,32.7z"/>
	<path class="st1" d="M366.5,43.5c0.6,0,1.2,0.2,1.6,0.6c0.1,0,0.2,0,0.3,0.1s0.3,0.2,0.4,0.4c0.1,0.2,0.1,0.3,0.1,0.4
		c0.2,0.4,0.1,3.6-0.2,9.6c-0.8,6.3-1.2,12.5-1.2,18.8c-0.3,7-0.6,10.8-1,11.4c-0.3,0.6-0.8,1.2-1.7,1.6c-0.9,0-1.4-0.2-1.7-0.7
		c-0.6-0.9-0.9-3-0.9-6.5c0-2.5,0.4-8.9,1.1-19.4c0.2-1.4,0.4-2.8,0.5-4.4s0.3-2.9,0.4-4.1c0.1-1.2,0.2-2.3,0.4-3.3
		c0.1-1,0.2-1.9,0.3-2.5c0.1-0.6,0.1-1,0.2-1.3C365.4,43.8,365.9,43.5,366.5,43.5z M366.1,90.9c1.2,0.9,1.9,1.6,1.9,2.1
		c0.3,0.6,0.1,1.4-0.6,2.4c-0.5,0.9-0.9,1.4-1.2,1.4c-0.2,0-0.9-0.2-2-0.6c-0.1-0.1-0.3-0.3-0.6-0.5c-0.3-0.2-0.5-0.4-0.6-0.6
		s-0.2-0.3-0.2-0.4c-0.2-0.2-0.2-0.8-0.2-1.9c0.4-1,0.8-1.6,1.4-1.9C364.4,90.4,365.1,90.4,366.1,90.9z"/>
</g>
</svg>
